<svg id="Calque_1" data-name="Calque 1" xmlns="http://www.w3.org/2000/svg" viewBox="0 0 533.64 512.84"><defs><style>.cls-1{fill:#ffd0a6;}.cls-2{fill:#e8b182;}</style></defs><title>fist</title><path class="cls-1" d="M213.88,151.92l-2.53-2.53a40.91,40.91,0,0,1,0-57.85L287.87,15A42.7,42.7,0,0,1,348.26,75.4l-76.52,76.52A40.91,40.91,0,0,1,213.88,151.92Z" transform="translate(-5.35 -2.51)"/><path class="cls-1" d="M5.35,367,39,333.32A193.91,193.91,0,0,0,94.08,222l5.48-40.82a144.11,144.11,0,0,1,40.95-82.77A303.86,303.86,0,0,1,184.6,61.9l13.6-9.24a38.94,38.94,0,0,1,52.4,7.93L293,18.16,499.16,256.79l-17.69,47.7-78.25,78.25a248.9,248.9,0,0,1-174.53,72.88,37.19,37.19,0,0,0-26.13,10.91l-48.83,48.82" transform="translate(-5.35 -2.51)"/><path class="cls-2" d="M226.13,106.32,302.65,29.8a42.71,42.71,0,0,1,52.08-6.48A42.74,42.74,0,0,0,287.87,15L211.35,91.54a40.91,40.91,0,0,0,0,57.85l2.53,2.53a41.15,41.15,0,0,0,6.78,5.47A40.92,40.92,0,0,1,226.13,106.32Z" transform="translate(-5.35 -2.51)"/><path class="cls-2" d="M398.13,146.29l-76.52,76.53A40.92,40.92,0,0,1,266,224.88,93.26,93.26,0,0,0,250.33,182a40.53,40.53,0,0,1,10.89-19.6l76.52-76.52a42.7,42.7,0,0,1,60.39,60.38Z" transform="translate(-5.35 -2.51)"/><path class="cls-2" d="M324.14,283.2l-2.53-2.53a40.9,40.9,0,0,1,0-57.85l76.52-76.52a42.7,42.7,0,1,1,60.38,60.38L382,283.2A40.91,40.91,0,0,1,324.14,283.2Z" transform="translate(-5.35 -2.51)"/><path class="cls-2" d="M393.22,334.89l-2.53-2.53a40.91,40.91,0,0,1,0-57.86L441,224.21a42.7,42.7,0,1,1,60.38,60.38l-50.29,50.3A40.91,40.91,0,0,1,393.22,334.89Z" transform="translate(-5.35 -2.51)"/><path class="cls-1" d="M423.25,121.17l-76.52,76.52a40.91,40.91,0,0,1-57.86,0l-2.52-2.52a40.91,40.91,0,0,1,0-57.86l76.52-76.52a42.7,42.7,0,0,1,60.38,60.38Z" transform="translate(-5.35 -2.51)"/><path class="cls-2" d="M301.12,152.09l76.52-76.52a42.71,42.71,0,0,1,52.08-6.48,42.71,42.71,0,0,0-66.85-8.3l-76.52,76.52a40.91,40.91,0,0,0,0,57.86l2.52,2.53a41,41,0,0,0,6.78,5.46A40.92,40.92,0,0,1,301.12,152.09Z" transform="translate(-5.35 -2.51)"/><path class="cls-1" d="M349.26,258.08l-2.53-2.53a40.91,40.91,0,0,1,0-57.85l76.52-76.52a42.7,42.7,0,1,1,60.38,60.38l-76.52,76.52A40.91,40.91,0,0,1,349.26,258.08Z" transform="translate(-5.35 -2.51)"/><path class="cls-2" d="M361.51,212.47,438,136a42.71,42.71,0,0,1,52.08-6.47,42.74,42.74,0,0,0-66.86-8.3L346.73,197.7a40.9,40.9,0,0,0,0,57.85l2.53,2.53a41.15,41.15,0,0,0,6.78,5.47A40.92,40.92,0,0,1,361.51,212.47Z" transform="translate(-5.35 -2.51)"/><path class="cls-1" d="M418.34,309.76l-2.53-2.52a40.91,40.91,0,0,1,0-57.86l50.29-50.29a42.7,42.7,0,1,1,60.38,60.38l-50.29,50.29A40.9,40.9,0,0,1,418.34,309.76Z" transform="translate(-5.35 -2.51)"/><path class="cls-2" d="M430.59,264.16l50.29-50.29A42.71,42.71,0,0,1,533,207.39a42.71,42.71,0,0,0-66.86-8.3l-50.29,50.29a40.91,40.91,0,0,0,0,57.86l2.53,2.52a40.14,40.14,0,0,0,6.78,5.47A40.91,40.91,0,0,1,430.59,264.16Z" transform="translate(-5.35 -2.51)"/><path class="cls-2" d="M358.47,186l-11.74,11.74a40.91,40.91,0,0,1-57.86,0l-2.52-2.52a40.91,40.91,0,0,1,0-57.86l18.23-18.23a487.45,487.45,0,0,0,38.77,34.44A40.15,40.15,0,0,1,358.47,186Z" transform="translate(-5.35 -2.51)"/><path class="cls-1" d="M5.35,367,39,333.32A193.91,193.91,0,0,0,94.08,222l5.48-40.82a144.11,144.11,0,0,1,40.95-82.77A303.86,303.86,0,0,1,184.6,61.9l13.6-9.24a38.94,38.94,0,0,1,52.4,7.93,487.6,487.6,0,0,0,78,78.15,40.19,40.19,0,0,1,8.18,54l-.45.67a40.23,40.23,0,0,1-58.39,8.8,566.51,566.51,0,0,1-49.09-44" transform="translate(-5.35 -2.51)"/><path class="cls-2" d="M125.86,253.74A193.91,193.91,0,0,1,70.79,365.09L37.13,398.75,5.36,367,39,333.32A193.92,193.92,0,0,0,94.09,222l5.48-40.82A144.14,144.14,0,0,1,140.5,98.38q10.14-10.14,21.19-19.29T184.61,61.9l13.6-9.24a38.94,38.94,0,0,1,52.39,7.93Q258.91,71,267.78,81.05A39,39,0,0,0,230,84.43l-13.6,9.24a304.56,304.56,0,0,0-44.11,36.48,144.18,144.18,0,0,0-40.93,82.77Z" transform="translate(-5.35 -2.51)"/><path class="cls-2" d="M233.51,306.43a7.85,7.85,0,0,1,0-11.09,85.9,85.9,0,0,0,10.34-108.89A86.48,86.48,0,0,0,233.51,174l-10.23-10.23a7.83,7.83,0,1,1,11.08-11.08l10.23,10.23a103.24,103.24,0,0,1,12.22,14.75,101.57,101.57,0,0,1-12.22,128.79A7.83,7.83,0,0,1,233.51,306.43Z" transform="translate(-5.35 -2.51)"/></svg>