<svg id="Calque_1" data-name="Calque 1" xmlns="http://www.w3.org/2000/svg" viewBox="0 0 512.02 381.83"><defs><style>.cls-1{fill:#9b7373;}.cls-2{fill:#cca3a3;}.cls-3{fill:#543a3a;}.cls-4{fill:#776161;}.cls-5{fill:#3d2c2c;}.cls-6{fill:#333;}.cls-7{fill:#3d3430;}.cls-8{fill:#cc9c72;}.cls-9{fill:#f2c09a;}.cls-10{fill:#a67c52;}.cls-11{fill:#850606;}.cls-12{fill:#534741;}.cls-13{fill:none;}</style></defs><title>red-dead</title><path class="cls-1" d="M0,347.12H104.1A104.12,104.12,0,0,0,208,250.6V131.21a104.13,104.13,0,0,0-103.85-96.5H0Z" transform="translate(0 0)"/><path class="cls-2" d="M60.75,295.05v52.07H26V295.05Z" transform="translate(0 0)"/><path class="cls-3" d="M0,295.05H17.36a62.92,62.92,0,0,0,86.78,0h90.12A103.3,103.3,0,0,0,208,250.6v-25H182.25a34.72,34.72,0,0,1-1.15-69.43H208v-25a103.22,103.22,0,0,0-13.74-44.43H104.15a62.92,62.92,0,0,0-86.78,0H0Z" transform="translate(0 0)"/><path class="cls-1" d="M164.88,112.81v17.36H130.17V112.81Z" transform="translate(0 0)"/><path class="cls-4" d="M112.81,17.36V34.71H26V0H95.46a17.35,17.35,0,0,1,17.35,17.35Z" transform="translate(0 0)"/><path class="cls-3" d="M112.81,34.71V17.36A17.35,17.35,0,0,0,95.47,0H78.1V34.71Z" transform="translate(0 0)"/><path class="cls-4" d="M26,381.83V347.12h86.81v17.35a17.33,17.33,0,0,1-17.3,17.36H26Z" transform="translate(0 0)"/><path class="cls-3" d="M112.81,347.12v17.36a17.34,17.34,0,0,1-17.33,17.35H78.1V347.12Z" transform="translate(0 0)"/><path class="cls-2" d="M69.42,121.49v69.44H34.71V121.49Z" transform="translate(0 0)"/><path class="cls-4" d="M34.71,121.49v69.44H0V121.49Z" transform="translate(0 0)"/><path class="cls-2" d="M69.42,190.93v69.43H34.71V190.93Z" transform="translate(0 0)"/><path class="cls-4" d="M34.71,190.93v69.43H0V190.93Z" transform="translate(0 0)"/><path class="cls-5" d="M69.42,182.24v17.35H0V182.24Z" transform="translate(0 0)"/><path class="cls-5" d="M95.46,301.68a62.06,62.06,0,0,0,8.68-6.63h8.67V199.59h35.94a31.39,31.39,0,0,1,0-17.35H112.81V86.78H104.1a64.25,64.25,0,0,0-8.68-6.63Z" transform="translate(0 0)"/><path class="cls-6" d="M95.46,312.41V277.7l52.06-8.7v52.07Z" transform="translate(0 0)"/><path class="cls-7" d="M373.15,60.75V321.09h-52V60.75Z" transform="translate(0 0)"/><path class="cls-8" d="M347.1,303.73v8.68a26,26,0,1,1-52.07,0v-8.68Z" transform="translate(0 0)"/><path class="cls-8" d="M295,78.1V69.42a26,26,0,0,1,52.07,0V78.1Z" transform="translate(0 0)"/><path class="cls-9" d="M355.8,303.73H303.73A112.82,112.82,0,0,1,301.61,78.1H355.8Z" transform="translate(0 0)"/><path class="cls-10" d="M251.66,190.93v-8.67a8.68,8.68,0,1,1,17.36,0v8.69h17.35a8.68,8.68,0,1,1,0,17.36H269A17.36,17.36,0,0,1,251.66,190.93Z" transform="translate(0 0)"/><path class="cls-10" d="M313.33,166.5l-8.64-33.57a8.68,8.68,0,1,1,16.72-4.67l.09.35h0l8.6,33.56a8.68,8.68,0,1,1-16.76,4.53c0-.06,0-.13,0-.2Z" transform="translate(0 0)"/><path class="cls-10" d="M303.9,249.13l8.2-33.68A8.68,8.68,0,1,1,329,219.54l-8.18,33.73a8.68,8.68,0,0,1-16.87-4.09Z" transform="translate(0 0)"/><path class="cls-11" d="M217,199.59V182.24a8.68,8.68,0,1,1,17.35-.59,5.81,5.81,0,0,1,0,.59v17.35a8.68,8.68,0,0,1-17.35.59Z" transform="translate(0 0)"/><path class="cls-12" d="M356.52,215a86.8,86.8,0,0,0-26.76,62.68v26h26.76Z" transform="translate(0 0)"/><path class="cls-12" d="M357.84,208.27H329.76v-4.58a62.8,62.8,0,0,1,28.08-52.32Z" transform="translate(0 0)"/><path class="cls-12" d="M358.71,144.25a62.83,62.83,0,0,1-29-52.89V78.1h29Z" transform="translate(0 0)"/><path class="cls-3" d="M269,298.23V260.34l-26-8.68v34.27A111.74,111.74,0,0,0,269,298.23Z" transform="translate(0 0)"/><path class="cls-3" d="M269,83.61v37.88l-26,8.68V96A112.45,112.45,0,0,1,269,83.61Z" transform="translate(0 0)"/><path class="cls-1" d="M391.57,328.46l-9.74,1.3-31.24,12.51a16.1,16.1,0,0,1-14.89-28.34,16.38,16.38,0,0,1,1.72-1l18.38-9.2V78.1l-18.41-9.17a16.09,16.09,0,0,1,13.17-29.34L381.83,52.1l9.74,1.3a138.76,138.76,0,0,1,0,275.09Z" transform="translate(0 0)"/><path class="cls-3" d="M459.93,130.17v34.76l51.66,17.22A138.66,138.66,0,0,0,441.86,70.44l-25.32,33.75Z" transform="translate(0 0)"/><path class="cls-3" d="M451.25,208.27l-26-17.36V156.2l-34.71-17.35V217l17.35,26v34.7l46.87,25.38a139.27,139.27,0,0,0,38.86-43.27L459.93,243Z" transform="translate(0 0)"/><rect class="cls-13" x="277" y="226" width="18" height="17"/><line class="cls-13" x1="295" y1="226" x2="278" y2="243"/><path class="cls-10" d="M289.7,220.7l-17,17c-6.83,6.83,3.77,17.44,10.61,10.61l17-17C307.14,224.47,296.54,213.86,289.7,220.7Z" transform="translate(0 0)"/><path class="cls-10" d="M272.7,231.31l17,17c6.83,6.83,17.44-3.77,10.61-10.61l-17-17C276.47,213.87,265.86,224.47,272.7,231.31Z" transform="translate(0 0)"/><line class="cls-13" x1="295" y1="139" x2="278" y2="156"/><path class="cls-10" d="M289.7,133.7l-17,17c-6.83,6.83,3.77,17.44,10.61,10.61l17-17C307.14,137.47,296.54,126.86,289.7,133.7Z" transform="translate(0 0)"/><path class="cls-10" d="M272.7,144.31l17,17c6.83,6.83,17.44-3.77,10.61-10.61l-17-17C276.47,126.87,265.86,137.47,272.7,144.31Z" transform="translate(0 0)"/><path class="cls-11" d="M201.37,240.65C208,245,212,240,217,243s-3,7-3,9,6,3,8,7-5,5.26-5,5.26C212,262,201.37,240.65,201.37,240.65Z" transform="translate(0 0)"/><path class="cls-11" d="M356.28,302.93a1.33,1.33,0,0,1-.56.06c-2.5-.25-20.72-2.24-20.72-6,0-4,11-1,11-5s-11-2-10-7,13-6,14-11-12-8-14-12-3-7,9-13-9-3-13-3-6-8-2-8,16-1,25.8-.48c4,.21,23.2,1.48,23.2,5.48s-16,2-18,7,5,3,5,8-8,3-8,7,28,10,28,19C386,292.5,359.29,301.93,356.28,302.93Z" transform="translate(0 0)"/><path class="cls-11" d="M274,300c4.86-16.09,7-6,7-3s5-6,8-6,7,3,6,6a24.72,24.72,0,0,1-3.24,6.22C290,304,274,302,274,300" transform="translate(0 0)"/><line class="cls-13" x1="232.5" y1="201" x2="232.5" y2="222"/><path class="cls-11" d="M231,201v21a1.5,1.5,0,0,0,3,0V201a1.5,1.5,0,0,0-3,0Z" transform="translate(0 0)"/><line class="cls-13" x1="224.5" y1="197" x2="224.5" y2="218"/><path class="cls-11" d="M223,197v21a1.5,1.5,0,0,0,3,0V197a1.5,1.5,0,0,0-3,0Z" transform="translate(0 0)"/></svg>