<svg id="Calque_1" data-name="Calque 1" xmlns="http://www.w3.org/2000/svg" viewBox="0 0 381.83 512"><defs><style>.cls-1{fill:#9b7373;}.cls-2{fill:#cca3a3;}.cls-3{fill:#543a3a;}.cls-4{fill:#776161;}.cls-5{fill:#3d2c2c;}.cls-6{fill:#333;}.cls-7{fill:#3d3430;}.cls-8{fill:#cc9c72;}.cls-9{fill:#f2c09a;}.cls-10{fill:#a67c52;}.cls-11{fill:#534741;}</style></defs><title>red</title><path class="cls-1" d="M412.12,512V407.86A104.14,104.14,0,0,0,315.6,304H196.21a104.13,104.13,0,0,0-96.5,103.85V512Z" transform="translate(-65)"/><path class="cls-2" d="M360.05,451.25h52.07V486H360.05Z" transform="translate(-65)"/><path class="cls-3" d="M360.05,512V494.64a62.92,62.92,0,0,0,0-86.78V317.74A103.42,103.42,0,0,0,315.6,304h-25v25.75a34.72,34.72,0,1,1-69.43,0V304h-25a103.22,103.22,0,0,0-44.43,13.74v90.11a62.92,62.92,0,0,0,0,86.78V512Z" transform="translate(-65)"/><path class="cls-1" d="M177.81,347.12h17.36v34.71H177.81Z" transform="translate(-65)"/><path class="cls-4" d="M82.36,399.19H99.71V486H65V416.54A17.35,17.35,0,0,1,82.36,399.19Z" transform="translate(-65)"/><path class="cls-3" d="M99.71,399.19H82.36A17.35,17.35,0,0,0,65,416.54V433.9H99.71Z" transform="translate(-65)"/><path class="cls-4" d="M446.83,486H412.12V399.19h17.35a17.35,17.35,0,0,1,17.36,17.35Z" transform="translate(-65)"/><path class="cls-3" d="M412.12,399.19h17.36a17.35,17.35,0,0,1,17.35,17.35V433.9H412.12Z" transform="translate(-65)"/><path class="cls-2" d="M186.49,442.58h69.42v34.71H186.49Z" transform="translate(-65)"/><path class="cls-4" d="M186.49,477.29h69.42V512H186.49Z" transform="translate(-65)"/><path class="cls-2" d="M255.91,442.58h69.43v34.71H255.91Z" transform="translate(-65)"/><path class="cls-4" d="M255.91,477.29h69.43V512H255.91Z" transform="translate(-65)"/><path class="cls-5" d="M247.24,442.58h17.35V512H247.24Z" transform="translate(-65)"/><path class="cls-5" d="M366.68,416.54a62.65,62.65,0,0,0-6.63-8.68v-8.67H264.59V363.25a31.39,31.39,0,0,1-17.35,0v35.94H151.78v8.67a63.44,63.44,0,0,0-6.63,8.68Z" transform="translate(-65)"/><path class="cls-6" d="M377.41,416.54H342.7L334,364.48h52.07Z" transform="translate(-65)"/><path class="cls-7" d="M125.75,138.85H386.09v52.06H125.75Z" transform="translate(-65)"/><path class="cls-8" d="M368.73,164.88h8.68a26,26,0,0,1,0,52.07h-8.68Z" transform="translate(-65)"/><path class="cls-8" d="M143.1,217h-8.68a26,26,0,0,1,0-52.07h8.68Z" transform="translate(-65)"/><path class="cls-9" d="M368.73,156.2v52.07a112.82,112.82,0,1,1-225.63,0V156.2Z" transform="translate(-65)"/><path class="cls-10" d="M255.91,260.34h-8.67a8.68,8.68,0,0,1,0-17.36h8.67V225.63a8.68,8.68,0,0,1,17.36,0V243A17.36,17.36,0,0,1,255.91,260.34Z" transform="translate(-65)"/><path class="cls-10" d="M229.88,208.27H195.17a8.68,8.68,0,1,1,0-17.36h34.71a8.68,8.68,0,0,1,0,17.36Z" transform="translate(-65)"/><path class="cls-10" d="M316.66,208.27H282a8.68,8.68,0,0,1,0-17.36h34.71a8.68,8.68,0,0,1,0,17.36Z" transform="translate(-65)"/><path class="cls-10" d="M221.2,225.63a8.68,8.68,0,1,1-8.67-8.68A8.67,8.67,0,0,1,221.2,225.63Z" transform="translate(-65)"/><path class="cls-10" d="M308,225.63A8.68,8.68,0,1,1,299.3,217,8.67,8.67,0,0,1,308,225.63Z" transform="translate(-65)"/><path class="cls-10" d="M264.59,295.05H247.24a8.68,8.68,0,1,1,0-17.35h17.35a8.68,8.68,0,1,1,0,17.35Z" transform="translate(-65)"/><path class="cls-11" d="M280,155.48a86.8,86.8,0,0,0,62.68,26.76h26V155.48Z" transform="translate(-65)"/><path class="cls-11" d="M273.27,154.16v28.08h-4.58a62.78,62.78,0,0,1-52.32-28.08Z" transform="translate(-65)"/><path class="cls-11" d="M209.25,153.29a62.8,62.8,0,0,1-52.89,29H143.1v-29Z" transform="translate(-65)"/><path class="cls-3" d="M363.23,243H325.34l-8.68,26h34.22A112,112,0,0,0,363.23,243Z" transform="translate(-65)"/><path class="cls-3" d="M148.61,243h37.88l8.68,26H161A112,112,0,0,1,148.61,243Z" transform="translate(-65)"/><path class="cls-1" d="M393.46,120.43l1.3,9.74,12.51,31.24a16.1,16.1,0,0,1-28.35,14.89,13.94,13.94,0,0,1-1-1.72l-9.2-18.38H143.1l-9.2,18.41a16.09,16.09,0,0,1-29.34-13.17l12.51-31.27,1.3-9.74a138.76,138.76,0,0,1,275.09,0Z" transform="translate(-65)"/><path class="cls-3" d="M195.17,52.07h34.71L247.1.41A138.66,138.66,0,0,0,135.39,70.14l33.75,25.32Z" transform="translate(-65)"/><path class="cls-3" d="M273.27,60.75l-17.36,26H221.2l-17.35,34.71H282l26-17.35H342.7l25.38-46.87a139.39,139.39,0,0,0-43.27-38.86L308,52.07Z" transform="translate(-65)"/></svg>