<?xml version="1.0" encoding="utf-8"?>
<!-- Generator: Adobe Illustrator 22.1.0, SVG Export Plug-In . SVG Version: 6.00 Build 0)  -->
<svg xmlns="http://www.w3.org/2000/svg" xmlns:xlink="http://www.w3.org/1999/xlink" version="1.1" id="Layer_1" x="0px" y="0px" viewBox="0 0 512 512" style="enable-background:new 0 0 512 512;" xml:space="preserve" width="512" height="512">
<style type="text/css">
	.st0{fill:#DB9C2E;}
	.st1{fill:#BF6C0D;}
	.st2{fill:#F9BB32;}
	.st3{fill:#FCE575;}
	.st4{fill:#FFD551;}
	.st5{fill:#FFC34C;}
	.st6{fill:#FFDF74;}
	.st7{fill:#FFA730;}
	.st8{fill:#FFF4C1;}
	.st9{fill:#FFEACF;}
	.st10{fill:#FF624B;}
	.st11{fill:#CCC033;}
	.st12{fill:#8C4C17;}
	.st13{fill:#FFD59A;}
	.st14{fill:#99AF17;}
	.st15{fill:#FCF9DE;}
	.st16{fill:#E58D23;}
	.st17{fill:#A56021;}
	.st18{fill:#FF4B34;}
	.st19{fill:#FF9079;}
	.st20{fill:#EACF32;}
	.st21{fill:#FFB74B;}
	.st22{fill:#FCDA4F;}
	.st23{fill:#FFEA63;}
</style>
<g>
	<g>
		<path class="st10" d="M443.347,66.422C392.046,39.068,317.553,64.597,256,124.269c-61.553-59.672-136.046-85.2-187.348-57.847    c-67.579,36.031-69.298,150.12-3.84,254.823c39.038,62.444,93.153,107.43,144.812,125.943c14.075,6.764,29.752,9.78,46.376,9.302    c16.623,0.478,32.301-2.538,46.376-9.302c51.659-18.512,105.773-63.499,144.812-125.943    C512.646,216.542,510.927,102.453,443.347,66.422z"/>
	</g>
	<g>
		<g>
			<path class="st18" d="M299.352,447.187c-51.659-18.512-105.773-63.499-144.812-125.943     c-65.458-104.703-63.739-218.792,3.84-254.823c1.484-0.791,2.989-1.533,4.511-2.236c-34.308-11.903-67.439-12.053-94.239,2.236     c-67.579,36.031-69.298,150.12-3.84,254.823c39.038,62.444,93.153,107.43,144.812,125.943c14.075,6.765,29.753,9.78,46.376,9.302     c16.032,0.461,31.18-2.338,44.864-8.606C300.36,447.653,299.853,447.428,299.352,447.187z"/>
		</g>
	</g>
	<g>
		<circle class="st18" cx="228.485" cy="356.057" r="15.815"/>
	</g>
	<g>
		<circle class="st18" cx="277.5" cy="388.706" r="15.815"/>
	</g>
	<g>
		<path class="st19" d="M459.451,231.766c-0.923,0-1.86-0.214-2.737-0.665c-2.947-1.514-4.109-5.131-2.595-8.079    c19.239-37.442,20.166-70.742,2.755-98.976c-13.012-21.101-31.672-31.309-31.859-31.409c-2.918-1.571-4.01-5.209-2.439-8.127    c1.57-2.917,5.21-4.01,8.127-2.439c0.879,0.473,21.702,11.865,36.386,35.677c13.59,22.04,24.224,59.146-2.296,110.759    C463.729,230.577,461.628,231.766,459.451,231.766z"/>
	</g>
</g>
</svg>
