<svg id="Calque_1" data-name="Calque 1" xmlns="http://www.w3.org/2000/svg" viewBox="0 0 512.02 381.83"><defs><style>.cls-1{fill:#74749e;}.cls-2{fill:#a3a3cc;}.cls-3{fill:#3b3b56;}.cls-4{fill:#62627a;}.cls-5{fill:#2c2c3f;}.cls-6{fill:#333;}.cls-7{fill:#3d3430;}.cls-8{fill:#cc9c72;}.cls-9{fill:#f2c09a;}.cls-10{fill:#a67c52;}.cls-11{fill:#c1272d;}.cls-12{fill:#534741;}.cls-13{fill:none;}</style></defs><title>blue-dead</title><path class="cls-1" d="M493.9,538.19H598A104.13,104.13,0,0,0,701.9,441.67V322.28a104.13,104.13,0,0,0-103.85-96.5H493.9Z" transform="translate(-493.9 -191.07)"/><path class="cls-2" d="M554.65,486.12v52.07H519.9V486.12Z" transform="translate(-493.9 -191.07)"/><path class="cls-3" d="M493.9,486.12h17.36a62.92,62.92,0,0,0,86.78,0h90.12a103.3,103.3,0,0,0,13.74-44.45v-25H676.15A34.72,34.72,0,0,1,675,347.24H701.9v-25a103.26,103.26,0,0,0-13.74-44.43H598.05a62.92,62.92,0,0,0-86.78,0H493.9Z" transform="translate(-493.9 -191.07)"/><path class="cls-1" d="M658.78,303.88v17.36H624.07V303.88Z" transform="translate(-493.9 -191.07)"/><path class="cls-4" d="M606.71,208.43v17.35H519.9V191.07h69.46a17.35,17.35,0,0,1,17.35,17.35Z" transform="translate(-493.9 -191.07)"/><path class="cls-3" d="M606.71,225.78V208.43a17.35,17.35,0,0,0-17.34-17.36H572v34.71Z" transform="translate(-493.9 -191.07)"/><path class="cls-4" d="M519.9,572.9V538.19h86.81v17.35a17.33,17.33,0,0,1-17.34,17.36H519.9Z" transform="translate(-493.9 -191.07)"/><path class="cls-3" d="M606.71,538.19v17.36a17.34,17.34,0,0,1-17.35,17.35H572V538.19Z" transform="translate(-493.9 -191.07)"/><path class="cls-2" d="M563.32,312.56V382H528.61V312.56Z" transform="translate(-493.9 -191.07)"/><path class="cls-4" d="M528.61,312.56V382H493.9V312.56Z" transform="translate(-493.9 -191.07)"/><path class="cls-2" d="M563.32,382v69.43H528.61V382Z" transform="translate(-493.9 -191.07)"/><path class="cls-4" d="M528.61,382v69.43H493.9V382Z" transform="translate(-493.9 -191.07)"/><path class="cls-5" d="M563.32,373.31v17.35H493.9V373.31Z" transform="translate(-493.9 -191.07)"/><path class="cls-5" d="M589.36,492.75a62.06,62.06,0,0,0,8.68-6.63h8.67V390.66h35.94a31.39,31.39,0,0,1,0-17.35H606.71V277.85H598a63.63,63.63,0,0,0-8.68-6.63Z" transform="translate(-493.9 -191.07)"/><path class="cls-6" d="M589.36,503.48V468.77l52.06-8.7v52.07Z" transform="translate(-493.9 -191.07)"/><path class="cls-7" d="M867.05,251.82V512.16H815V251.82Z" transform="translate(-493.9 -191.07)"/><path class="cls-8" d="M841,494.8v8.68a26,26,0,1,1-52.07,0V494.8Z" transform="translate(-493.9 -191.07)"/><path class="cls-8" d="M788.9,269.17v-8.68a26,26,0,0,1,52.07,0v8.68Z" transform="translate(-493.9 -191.07)"/><path class="cls-9" d="M849.7,494.8H797.63a112.82,112.82,0,0,1-2.12-225.63H849.7Z" transform="translate(-493.9 -191.07)"/><path class="cls-10" d="M745.56,382v-8.67a8.68,8.68,0,1,1,17.36,0V382h17.35a8.68,8.68,0,1,1,0,17.36H762.9A17.36,17.36,0,0,1,745.56,382Z" transform="translate(-493.9 -191.07)"/><path class="cls-10" d="M807.23,357.57,798.59,324a8.68,8.68,0,1,1,16.81-4.32h0L824,353.24a8.68,8.68,0,1,1-16.81,4.33Z" transform="translate(-493.9 -191.07)"/><path class="cls-10" d="M797.8,440.2,806,406.52a8.68,8.68,0,0,1,16.88,4.09l-8.18,33.73a8.68,8.68,0,0,1-16.87-4.09Z" transform="translate(-493.9 -191.07)"/><path class="cls-11" d="M710.85,390.66V373.31a8.68,8.68,0,0,1,17.35-.59,5.8,5.8,0,0,1,0,.59v17.35a8.68,8.68,0,1,1-17.35.59Z" transform="translate(-493.9 -191.07)"/><path class="cls-12" d="M850.42,406.07a86.82,86.82,0,0,0-26.76,62.68v26h26.76Z" transform="translate(-493.9 -191.07)"/><path class="cls-12" d="M851.74,399.34H823.66v-4.58a62.8,62.8,0,0,1,28.08-52.32Z" transform="translate(-493.9 -191.07)"/><path class="cls-12" d="M852.61,335.32a62.82,62.82,0,0,1-29-52.89V269.17h29Z" transform="translate(-493.9 -191.07)"/><path class="cls-3" d="M762.9,489.3V451.41l-26-8.68V477A111.91,111.91,0,0,0,762.9,489.3Z" transform="translate(-493.9 -191.07)"/><path class="cls-3" d="M762.9,274.68v37.88l-26,8.68V287.07A112.45,112.45,0,0,1,762.9,274.68Z" transform="translate(-493.9 -191.07)"/><path class="cls-1" d="M885.47,519.53l-9.74,1.3-31.24,12.51A16.1,16.1,0,0,1,829.6,505a16.38,16.38,0,0,1,1.72-1l18.38-9.2V269.17L831.29,260a16.09,16.09,0,0,1,13.17-29.34l31.27,12.51,9.74,1.3a138.76,138.76,0,0,1,0,275.09Z" transform="translate(-493.9 -191.07)"/><path class="cls-3" d="M953.83,321.24V356l51.66,17.22a138.66,138.66,0,0,0-69.73-111.71l-25.32,33.75Z" transform="translate(-493.9 -191.07)"/><path class="cls-3" d="M945.15,399.34l-26-17.36V347.27l-34.71-17.35v78.15l17.35,26v34.7l46.87,25.38a139.27,139.27,0,0,0,38.86-43.27l-33.69-16.81Z" transform="translate(-493.9 -191.07)"/><rect class="cls-13" x="771.4" y="416.57" width="17" height="18" transform="translate(711.57 -545.4) rotate(90)"/><line class="cls-10" x1="295" y1="226" x2="278" y2="243"/><path class="cls-10" d="M783.6,411.77l-17,17c-6.83,6.83,3.77,17.44,10.61,10.61l17-17c6.83-6.84-3.77-17.45-10.61-10.61Z" transform="translate(-493.9 -191.07)"/><path class="cls-10" d="M766.6,422.38l17,17c6.83,6.83,17.44-3.77,10.61-10.61l-17-17c-6.84-6.83-17.45,3.77-10.61,10.61Z" transform="translate(-493.9 -191.07)"/><line class="cls-10" x1="295" y1="139" x2="278" y2="156"/><path class="cls-10" d="M783.6,324.77l-17,17c-6.83,6.83,3.77,17.44,10.61,10.61l17-17c6.83-6.84-3.77-17.45-10.61-10.61Z" transform="translate(-493.9 -191.07)"/><path class="cls-10" d="M766.6,335.38l17,17c6.83,6.83,17.44-3.77,10.61-10.61l-17-17c-6.84-6.83-17.45,3.77-10.61,10.61Z" transform="translate(-493.9 -191.07)"/><path class="cls-11" d="M695.27,431.72c6.63,4.35,10.63-.65,15.63,2.35s-3,7-3,9,6,3,8,7-5,5.26-5,5.26C705.9,453.07,695.27,431.72,695.27,431.72Z" transform="translate(-493.9 -191.07)"/><path class="cls-11" d="M850.18,494a1.33,1.33,0,0,1-.56.06c-2.5-.25-20.72-2.24-20.72-6,0-4,11-1,11-5s-11-2-10-7,13-6,14-11-12-8-14-12-3-7,9-13-9-3-13-3-6-8-2-8,16-1,25.8-.48c4,.21,23.2,1.48,23.2,5.48s-16,2-18,7,5,3,5,8-8,3-8,7,28,10,28,19C879.9,483.57,853.19,493,850.18,494Z" transform="translate(-493.9 -191.07)"/><path class="cls-11" d="M767.9,491.07c4.86-16.09,7-6,7-3s5-6,8-6,7,3,6,6a24.57,24.57,0,0,1-3.24,6.22c-1.76.78-17.76-1.22-17.76-3.22" transform="translate(-493.9 -191.07)"/><line class="cls-11" x1="232.5" y1="201" x2="232.5" y2="222"/><path class="cls-11" d="M724.9,392.07v21a1.5,1.5,0,0,0,3,0v-21a1.5,1.5,0,0,0-3,0Z" transform="translate(-493.9 -191.07)"/><line class="cls-11" x1="224.5" y1="197" x2="224.5" y2="218"/><path class="cls-11" d="M716.9,388.07v21a1.5,1.5,0,0,0,3,0v-21a1.5,1.5,0,0,0-3,0Z" transform="translate(-493.9 -191.07)"/></svg>