<svg id="Calque_1" data-name="Calque 1" xmlns="http://www.w3.org/2000/svg" viewBox="0 0 512.02 381.83"><defs><style>.cls-1{fill:#9b7373;}.cls-2{fill:#cca3a3;}.cls-3{fill:#543a3a;}.cls-4{fill:#776161;}.cls-5{fill:#3d2c2c;}.cls-6{fill:#333;}.cls-7{fill:#3d3430;}.cls-8{fill:#cc9c72;}.cls-9{fill:#f2c09a;}.cls-10{fill:#a67c52;}.cls-11{fill:#c1272d;}.cls-12{fill:#534741;}.cls-13{fill:none;}</style></defs><title>red-dead</title><path class="cls-1" d="M517.9,529.19H622A104.13,104.13,0,0,0,725.9,432.67V313.28a104.13,104.13,0,0,0-103.85-96.5H517.9Z" transform="translate(-517.9 -182.07)"/><path class="cls-2" d="M578.65,477.12v52.07H543.9V477.12Z" transform="translate(-517.9 -182.07)"/><path class="cls-3" d="M517.9,477.12h17.36a62.92,62.92,0,0,0,86.78,0h90.12a103.3,103.3,0,0,0,13.74-44.45v-25H700.15A34.72,34.72,0,0,1,699,338.24H725.9v-25a103.26,103.26,0,0,0-13.74-44.43H622.05a62.92,62.92,0,0,0-86.78,0H517.9Z" transform="translate(-517.9 -182.07)"/><path class="cls-1" d="M682.78,294.88v17.36H648.07V294.88Z" transform="translate(-517.9 -182.07)"/><path class="cls-4" d="M630.71,199.43v17.35H543.9V182.07h69.46a17.35,17.35,0,0,1,17.35,17.35Z" transform="translate(-517.9 -182.07)"/><path class="cls-3" d="M630.71,216.78V199.43a17.35,17.35,0,0,0-17.34-17.36H596v34.71Z" transform="translate(-517.9 -182.07)"/><path class="cls-4" d="M543.9,563.9V529.19h86.81v17.35a17.33,17.33,0,0,1-17.34,17.36H543.9Z" transform="translate(-517.9 -182.07)"/><path class="cls-3" d="M630.71,529.19v17.36a17.34,17.34,0,0,1-17.35,17.35H596V529.19Z" transform="translate(-517.9 -182.07)"/><path class="cls-2" d="M587.32,303.56V373H552.61V303.56Z" transform="translate(-517.9 -182.07)"/><path class="cls-4" d="M552.61,303.56V373H517.9V303.56Z" transform="translate(-517.9 -182.07)"/><path class="cls-2" d="M587.32,373v69.43H552.61V373Z" transform="translate(-517.9 -182.07)"/><path class="cls-4" d="M552.61,373v69.43H517.9V373Z" transform="translate(-517.9 -182.07)"/><path class="cls-5" d="M587.32,364.31v17.35H517.9V364.31Z" transform="translate(-517.9 -182.07)"/><path class="cls-5" d="M613.36,483.75a62.06,62.06,0,0,0,8.68-6.63h8.67V381.66h35.94a31.39,31.39,0,0,1,0-17.35H630.71V268.85H622a63.63,63.63,0,0,0-8.68-6.63Z" transform="translate(-517.9 -182.07)"/><path class="cls-6" d="M613.36,494.48V459.77l52.06-8.7v52.07Z" transform="translate(-517.9 -182.07)"/><path class="cls-7" d="M891.05,242.82V503.16H839V242.82Z" transform="translate(-517.9 -182.07)"/><path class="cls-8" d="M865,485.8v8.68a26,26,0,1,1-52.07,0V485.8Z" transform="translate(-517.9 -182.07)"/><path class="cls-8" d="M812.9,260.17v-8.68a26,26,0,0,1,52.07,0v8.68Z" transform="translate(-517.9 -182.07)"/><path class="cls-9" d="M873.7,485.8H821.63a112.82,112.82,0,0,1-2.12-225.63H873.7Z" transform="translate(-517.9 -182.07)"/><path class="cls-10" d="M769.56,373v-8.67a8.68,8.68,0,1,1,17.36,0V373h17.35a8.68,8.68,0,1,1,0,17.36H786.9A17.36,17.36,0,0,1,769.56,373Z" transform="translate(-517.9 -182.07)"/><path class="cls-10" d="M831.23,348.57,822.59,315a8.68,8.68,0,1,1,16.81-4.32h0L848,344.24a8.68,8.68,0,1,1-16.81,4.33Z" transform="translate(-517.9 -182.07)"/><path class="cls-10" d="M821.8,431.2,830,397.52a8.68,8.68,0,0,1,16.88,4.09l-8.18,33.73a8.68,8.68,0,0,1-16.87-4.09Z" transform="translate(-517.9 -182.07)"/><path class="cls-11" d="M734.85,381.66V364.31a8.68,8.68,0,0,1,17.35-.59,5.8,5.8,0,0,1,0,.59v17.35a8.68,8.68,0,1,1-17.35.59Z" transform="translate(-517.9 -182.07)"/><path class="cls-12" d="M874.42,397.07a86.82,86.82,0,0,0-26.76,62.68v26h26.76Z" transform="translate(-517.9 -182.07)"/><path class="cls-12" d="M875.74,390.34H847.66v-4.58a62.8,62.8,0,0,1,28.08-52.32Z" transform="translate(-517.9 -182.07)"/><path class="cls-12" d="M876.61,326.32a62.82,62.82,0,0,1-29-52.89V260.17h29Z" transform="translate(-517.9 -182.07)"/><path class="cls-3" d="M786.9,480.3V442.41l-26-8.68V468A111.91,111.91,0,0,0,786.9,480.3Z" transform="translate(-517.9 -182.07)"/><path class="cls-3" d="M786.9,265.68v37.88l-26,8.68V278.07A112.45,112.45,0,0,1,786.9,265.68Z" transform="translate(-517.9 -182.07)"/><path class="cls-1" d="M909.47,510.53l-9.74,1.3-31.24,12.51A16.1,16.1,0,0,1,853.6,496a16.38,16.38,0,0,1,1.72-1l18.38-9.2V260.17L855.29,251a16.09,16.09,0,0,1,13.17-29.34l31.27,12.51,9.74,1.3a138.76,138.76,0,0,1,0,275.09Z" transform="translate(-517.9 -182.07)"/><path class="cls-3" d="M977.83,312.24V347l51.66,17.22a138.66,138.66,0,0,0-69.73-111.71l-25.32,33.75Z" transform="translate(-517.9 -182.07)"/><path class="cls-3" d="M969.15,390.34l-26-17.36V338.27l-34.71-17.35v78.15l17.35,26v34.7l46.87,25.38a139.27,139.27,0,0,0,38.86-43.27l-33.69-16.81Z" transform="translate(-517.9 -182.07)"/><rect class="cls-13" x="795.4" y="407.57" width="17" height="18" transform="translate(702.57 -569.4) rotate(90)"/><line class="cls-10" x1="295" y1="226" x2="278" y2="243"/><path class="cls-10" d="M807.6,402.77l-17,17c-6.83,6.83,3.77,17.44,10.61,10.61l17-17c6.83-6.84-3.77-17.45-10.61-10.61Z" transform="translate(-517.9 -182.07)"/><path class="cls-10" d="M790.6,413.38l17,17c6.83,6.83,17.44-3.77,10.61-10.61l-17-17c-6.84-6.83-17.45,3.77-10.61,10.61Z" transform="translate(-517.9 -182.07)"/><line class="cls-10" x1="295" y1="139" x2="278" y2="156"/><path class="cls-10" d="M807.6,315.77l-17,17c-6.83,6.83,3.77,17.44,10.61,10.61l17-17c6.83-6.84-3.77-17.45-10.61-10.61Z" transform="translate(-517.9 -182.07)"/><path class="cls-10" d="M790.6,326.38l17,17c6.83,6.83,17.44-3.77,10.61-10.61l-17-17c-6.84-6.83-17.45,3.77-10.61,10.61Z" transform="translate(-517.9 -182.07)"/><path class="cls-11" d="M719.27,422.72c6.63,4.35,10.63-.65,15.63,2.35s-3,7-3,9,6,3,8,7-5,5.26-5,5.26C729.9,444.07,719.27,422.72,719.27,422.72Z" transform="translate(-517.9 -182.07)"/><path class="cls-11" d="M874.18,485a1.33,1.33,0,0,1-.56.06c-2.5-.25-20.72-2.24-20.72-6,0-4,11-1,11-5s-11-2-10-7,13-6,14-11-12-8-14-12-3-7,9-13-9-3-13-3-6-8-2-8,16-1,25.8-.48c4,.21,23.2,1.48,23.2,5.48s-16,2-18,7,5,3,5,8-8,3-8,7,28,10,28,19C903.9,474.57,877.19,484,874.18,485Z" transform="translate(-517.9 -182.07)"/><path class="cls-11" d="M791.9,482.07c4.86-16.09,7-6,7-3s5-6,8-6,7,3,6,6a24.57,24.57,0,0,1-3.24,6.22c-1.76.78-17.76-1.22-17.76-3.22" transform="translate(-517.9 -182.07)"/><line class="cls-11" x1="232.5" y1="201" x2="232.5" y2="222"/><path class="cls-11" d="M748.9,383.07v21a1.5,1.5,0,0,0,3,0v-21a1.5,1.5,0,0,0-3,0Z" transform="translate(-517.9 -182.07)"/><line class="cls-11" x1="224.5" y1="197" x2="224.5" y2="218"/><path class="cls-11" d="M740.9,379.07v21a1.5,1.5,0,0,0,3,0v-21a1.5,1.5,0,0,0-3,0Z" transform="translate(-517.9 -182.07)"/></svg>