<?xml version="1.0" encoding="utf-8"?>
<!-- Generator: Adobe Illustrator 23.0.2, SVG Export Plug-In . SVG Version: 6.00 Build 0)  -->
<svg version="1.1" id="Calque_1" xmlns="http://www.w3.org/2000/svg" xmlns:xlink="http://www.w3.org/1999/xlink" x="0px" y="0px"
	 viewBox="0 0 512 381.8" style="enable-background:new 0 0 512 381.8;" xml:space="preserve">
<style type="text/css">
	.st0{fill:#74749E;}
	.st1{fill:#A3A3CC;}
	.st2{fill:#3B3B56;}
	.st3{fill:#62627A;}
	.st4{fill:#2C2C3F;}
	.st5{fill:#333333;}
	.st6{fill:#3D3430;}
	.st7{fill:#CC9C72;}
	.st8{fill:#F2C09A;}
	.st9{fill:#A67C52;}
	.st10{fill:#850606;}
	.st11{fill:#534741;}
	.st12{fill:none;}
</style>
<title>blue-dead</title>
<path class="st0" d="M0,347.1h104.1c54.6,0,99.9-42.1,103.9-96.5V131.2c-4-54.4-49.3-96.5-103.8-96.5H0V347.1z"/>
<path class="st1" d="M60.8,295v52.1H26V295H60.8z"/>
<path class="st2" d="M0,295h17.4c24.3,23.1,62.5,23.1,86.8,0h90.1c7.9-13.6,12.6-28.8,13.7-44.5v-25h-25.8
	c-19.2,0.2-34.9-15.1-35.2-34.3c-0.2-19.1,14.9-34.8,34-35.2H208v-25c-1.1-15.7-5.8-30.9-13.7-44.4h-90.1
	c-24.3-23.1-62.5-23.1-86.8,0H0V295z"/>
<path class="st0" d="M164.9,112.8v17.4h-34.7v-17.4H164.9z"/>
<path class="st3" d="M112.8,17.4v17.4H26V0h69.5C105,0,112.8,7.8,112.8,17.4L112.8,17.4z"/>
<path class="st2" d="M112.8,34.7V17.4c0-9.6-7.8-17.4-17.3-17.4c0,0,0,0,0,0H78.1v34.7H112.8z"/>
<path class="st3" d="M26,381.8v-34.7h86.8v17.3c0,9.6-7.7,17.3-17.3,17.4c0,0,0,0,0,0L26,381.8L26,381.8z"/>
<path class="st2" d="M112.8,347.1v17.4c0,9.6-7.8,17.3-17.3,17.3c0,0,0,0,0,0H78.1v-34.7H112.8z"/>
<path class="st1" d="M69.4,121.5v69.4H34.7v-69.4H69.4z"/>
<path class="st3" d="M34.7,121.5v69.4H0v-69.4H34.7z"/>
<path class="st1" d="M69.4,190.9v69.4H34.7v-69.4H69.4z"/>
<path class="st3" d="M34.7,190.9v69.4H0v-69.4H34.7z"/>
<path class="st4" d="M69.4,182.2v17.4H0v-17.4H69.4z"/>
<path class="st4" d="M95.5,301.7c3.1-2,6-4.2,8.7-6.6h8.7v-95.5h35.9c-1.6-5.7-1.6-11.7,0-17.4h-35.9V86.8h-8.7
	c-2.7-2.5-5.6-4.7-8.7-6.6L95.5,301.7z"/>
<path class="st5" d="M95.5,312.4v-34.7l52.1-8.7v52.1L95.5,312.4z"/>
<path class="st6" d="M373.1,60.8v260.3h-52V60.8H373.1z"/>
<path class="st7" d="M347.1,303.7v8.7c0,14.4-11.7,26-26,26c-14.4,0-26-11.7-26-26v-8.7H347.1z"/>
<path class="st7" d="M295,78.1v-8.7c0-14.4,11.7-26,26-26c14.4,0,26,11.7,26,26v8.7H295z"/>
<path class="st8" d="M355.8,303.7h-52.1c-62.3,0.5-113.3-49.5-113.8-111.8c-0.5-62.3,49.4-113.2,111.7-113.8h54.2V303.7z"/>
<path class="st9" d="M251.7,190.9v-8.7c0-4.8,3.9-8.7,8.7-8.7s8.7,3.9,8.7,8.7c0,0,0,0,0,0v8.7h17.3c4.8,0,8.7,3.9,8.7,8.7
	s-3.9,8.7-8.7,8.7c0,0,0,0,0,0H269C259.4,208.3,251.7,200.5,251.7,190.9z"/>
<path class="st9" d="M313.3,166.5l-8.6-33.6c-1.3-4.6,1.4-9.4,6-10.7s9.4,1.4,10.7,6c0,0.1,0.1,0.2,0.1,0.4l0,0l8.6,33.6
	c1.3,4.6-1.5,9.4-6.1,10.6c-4.6,1.3-9.4-1.5-10.6-6.1C313.3,166.6,313.3,166.6,313.3,166.5L313.3,166.5z"/>
<path class="st9" d="M303.9,249.1l8.2-33.7c1.1-4.7,5.8-7.5,10.5-6.4c4.7,1.1,7.5,5.8,6.4,10.5l-8.2,33.7c-1.2,4.6-5.9,7.4-10.6,6.3
	C305.7,258.4,302.9,253.8,303.9,249.1L303.9,249.1z"/>
<path class="st10" d="M216.9,199.6v-17.4c-0.2-4.8,3.6-8.8,8.4-9c4.8-0.2,8.8,3.6,9,8.4c0,0.2,0,0.4,0,0.6v17.4
	c0.2,4.8-3.6,8.8-8.4,9c-4.8,0.2-8.8-3.6-9-8.4V199.6z"/>
<path class="st11" d="M356.5,215c-17.1,16.4-26.8,39-26.8,62.7v26h26.8V215z"/>
<path class="st11" d="M357.8,208.3h-28.1v-4.6c0-21,10.5-40.7,28.1-52.3V208.3z"/>
<path class="st11" d="M358.7,144.2c-18.1-11.5-29-31.5-29-52.9V78.1h29V144.2z"/>
<path class="st2" d="M269,298.2v-37.9l-26-8.7v34.3C251.1,291.1,259.8,295.3,269,298.2z"/>
<path class="st2" d="M269,83.6v37.9l-26,8.7V96C251.1,90.8,259.8,86.6,269,83.6z"/>
<path class="st0" d="M391.6,328.5l-9.7,1.3l-31.2,12.5c-8.3,3.3-17.6-0.8-20.9-9.1c-2.8-7-0.3-15.1,6-19.3c0.6-0.4,1.1-0.7,1.7-1
	l18.4-9.2V78.1l-18.4-9.2c-8-3.9-11.3-13.6-7.3-21.5c3.7-7.6,12.7-11,20.5-7.8l31.3,12.5l9.7,1.3c76,10.1,129.3,79.9,119.2,155.9
	C502.5,271.4,453.7,320.2,391.6,328.5L391.6,328.5z"/>
<path class="st2" d="M459.9,130.2v34.8l51.7,17.2c-3-46.6-29.2-88.6-69.7-111.7l-25.3,33.8L459.9,130.2z"/>
<path class="st2" d="M451.3,208.3l-26-17.4v-34.7l-34.7-17.4V217l17.3,26v34.7l46.9,25.4c15.9-11.5,29.1-26.3,38.9-43.3L459.9,243
	L451.3,208.3z"/>
<rect x="277" y="226" class="st12" width="18" height="17"/>
<line class="st12" x1="295" y1="226" x2="278" y2="243"/>
<path class="st9" d="M289.7,220.7l-17,17c-6.8,6.8,3.8,17.4,10.6,10.6l17-17C307.1,224.5,296.5,213.9,289.7,220.7z"/>
<path class="st9" d="M272.7,231.3l17,17c6.8,6.8,17.4-3.8,10.6-10.6l-17-17C276.5,213.9,265.9,224.5,272.7,231.3z"/>
<line class="st12" x1="295" y1="139" x2="278" y2="156"/>
<path class="st9" d="M289.7,133.7l-17,17c-6.8,6.8,3.8,17.4,10.6,10.6l17-17C307.1,137.5,296.5,126.9,289.7,133.7z"/>
<path class="st9" d="M272.7,144.3l17,17c6.8,6.8,17.4-3.8,10.6-10.6l-17-17C276.5,126.9,265.9,137.5,272.7,144.3z"/>
<path class="st10" d="M201.4,240.6C208,245,212,240,217,243s-3,7-3,9s6,3,8,7s-5,5.3-5,5.3C212,262,201.4,240.6,201.4,240.6z"/>
<path class="st10" d="M356.3,302.9c-0.2,0.1-0.4,0.1-0.6,0.1c-2.5-0.2-20.7-2.2-20.7-6c0-4,11-1,11-5s-11-2-10-7s13-6,14-11
	s-12-8-14-12s-3-7,9-13s-9-3-13-3s-6-8-2-8s16-1,25.8-0.5c4,0.2,23.2,1.5,23.2,5.5s-16,2-18,7s5,3,5,8s-8,3-8,7s28,10,28,19
	C386,292.5,359.3,301.9,356.3,302.9z"/>
<path class="st10" d="M274,300c4.9-16.1,7-6,7-3s5-6,8-6s7,3,6,6c-0.8,2.2-1.9,4.3-3.2,6.2C290,304,274,302,274,300"/>
<line class="st12" x1="232.5" y1="201" x2="232.5" y2="222"/>
<path class="st10" d="M231,201v21c0,0.8,0.7,1.5,1.5,1.5s1.5-0.7,1.5-1.5v-21c0-0.8-0.7-1.5-1.5-1.5S231,200.2,231,201z"/>
<line class="st12" x1="224.5" y1="197" x2="224.5" y2="218"/>
<path class="st10" d="M223,197v21c0,0.8,0.7,1.5,1.5,1.5s1.5-0.7,1.5-1.5v-21c0-0.8-0.7-1.5-1.5-1.5S223,196.2,223,197z"/>
</svg>
